<?xml version="1.0" standalone="no"?>
<!DOCTYPE svg PUBLIC "-//W3C//DTD SVG 20010904//EN"
 "http://www.w3.org/TR/2001/REC-SVG-20010904/DTD/svg10.dtd">
<svg version="1.0" xmlns="http://www.w3.org/2000/svg"
 width="500.000000pt" height="500.000000pt" viewBox="0 0 500.000000 500.000000"
 preserveAspectRatio="xMidYMid meet">

<g transform="translate(0.000000,500.000000) scale(0.100000,-0.100000)"
fill="#000000" stroke="none">
<path d="M2919 4406 c-105 -43 -181 -117 -232 -224 -30 -63 -32 -74 -32 -182
0 -133 20 -210 87 -345 48 -94 278 -465 289 -465 21 0 239 391 297 533 47 113
67 217 67 347 0 106 -2 119 -29 173 -65 133 -230 172 -352 85 -182 -131 -181
-425 1 -509 49 -23 77 -24 121 -3 69 33 105 186 60 261 -22 37 -87 76 -118 71
-37 -5 -31 -25 10 -31 67 -11 109 -78 97 -157 -19 -124 -100 -164 -194 -93
-75 57 -106 212 -62 309 23 50 81 116 127 145 46 28 137 28 192 0 88 -45 117
-110 116 -261 -2 -181 -34 -285 -162 -525 -120 -226 -165 -297 -178 -282 -26
27 -211 328 -255 415 -92 180 -115 380 -56 502 50 105 135 183 235 215 29 10
52 23 52 31 0 19 -16 17 -81 -10z"/>
<path d="M2330 4145 c-325 -45 -624 -187 -851 -403 -63 -59 -87 -88 -79 -96 7
-7 27 6 68 45 159 154 342 271 530 339 54 20 65 21 73 9 26 -42 -6 -119 -75
-180 -27 -24 -58 -66 -77 -105 -47 -95 -44 -142 21 -334 45 -131 53 -167 54
-230 0 -59 -5 -84 -22 -117 -27 -51 -56 -68 -176 -99 -50 -14 -114 -36 -142
-49 -29 -14 -69 -25 -92 -25 l-42 0 0 -39 c0 -35 -6 -44 -75 -106 l-75 -67 0
106 0 106 -26 0 c-17 0 -24 4 -21 13 34 76 67 171 72 208 15 104 -44 154 -155
130 -124 -27 -161 -69 -205 -234 l-27 -103 -65 -11 c-116 -20 -187 -103 -187
-218 0 -117 64 -199 172 -220 l56 -11 13 -89 c82 -572 498 -1064 1051 -1244
185 -61 287 -76 502 -75 152 0 204 4 290 23 636 135 1109 612 1230 1238 11 57
20 119 20 138 0 19 5 37 10 40 6 3 10 -1 10 -9 0 -12 10 -16 40 -16 l40 0 0
85 0 85 50 0 c108 0 164 53 157 148 -3 44 -10 59 -36 85 -31 32 -33 32 -141
35 l-110 4 0 -91 c0 -50 -4 -91 -9 -91 -4 0 -11 33 -15 74 -20 217 -117 476
-257 685 -101 152 -355 402 -375 370 -4 -7 14 -30 47 -57 330 -275 521 -637
561 -1064 14 -151 2 -312 -35 -474 -22 -95 -27 -107 -82 -175 -88 -110 -173
-197 -235 -239 -131 -90 -169 -183 -119 -287 l21 -43 -52 -48 c-199 -180 -458
-309 -733 -364 -158 -32 -434 -32 -587 1 -263 56 -524 184 -709 348 l-53 48
16 48 c38 111 14 202 -79 306 -96 106 -97 127 -11 240 61 81 74 123 52 174
-38 92 -208 146 -358 115 -75 -16 -78 -15 -78 47 0 30 4 35 36 45 49 16 103
66 125 115 24 53 24 147 0 201 -17 38 -84 104 -106 104 -33 1 -35 16 -10 108
45 169 83 210 199 219 85 7 100 -8 94 -92 -4 -45 -19 -90 -61 -180 -66 -144
-77 -181 -77 -262 0 -65 20 -103 54 -103 8 0 23 -17 33 -37 22 -45 57 -72 105
-79 93 -16 169 32 187 117 6 27 11 101 11 164 l0 114 43 25 c23 14 85 37 137
51 198 54 235 93 235 250 -1 82 -5 103 -53 240 -78 226 -69 298 55 421 67 66
88 114 80 179 l-6 42 67 16 c99 24 185 37 297 45 55 4 100 11 100 17 0 15
-127 15 -235 0z m-1040 -1420 c0 -83 -3 -105 -14 -105 -18 0 -26 22 -26 69 0
37 26 141 35 141 3 0 5 -47 5 -105z m-304 43 c-3 -29 -6 -93 -6 -142 l0 -88
-27 7 c-63 15 -101 58 -110 123 -10 75 51 152 121 152 l29 0 -7 -52z m3314 32
c42 -42 8 -90 -65 -90 l-45 0 0 55 0 55 45 0 c32 0 51 -6 65 -20z m-3221 -25
c26 -30 31 -44 31 -86 0 -72 -42 -139 -87 -139 -15 0 -18 93 -7 199 8 71 19
76 63 26z m431 -195 c-34 -64 -140 -30 -140 45 0 7 33 43 73 80 l72 66 3 -86
c2 -48 -2 -94 -8 -105z m-236 -235 c160 -34 202 -120 113 -228 -106 -129 -104
-177 13 -302 61 -66 80 -108 80 -181 0 -45 -17 -104 -30 -104 -14 0 -143 158
-193 235 -64 101 -130 236 -165 341 -40 119 -59 211 -46 224 9 9 93 26 139 29
11 0 51 -6 89 -14z m2647 -402 c-23 -48 -71 -131 -106 -183 -60 -90 -158 -211
-177 -218 -17 -7 -40 71 -34 115 8 62 28 86 131 162 50 38 120 102 156 144 35
41 66 74 68 71 2 -2 -15 -43 -38 -91z"/>
<path d="M2921 3096 c-13 -7 -52 -42 -87 -76 l-63 -63 -42 37 c-93 85 -205 88
-239 6 -28 -67 40 -150 122 -150 22 0 38 -4 36 -8 -1 -5 -16 -43 -33 -85 -16
-42 -32 -77 -35 -77 -3 0 -23 47 -45 104 -21 58 -42 103 -46 101 -3 -3 -23
-50 -44 -105 -21 -56 -41 -97 -45 -93 -17 20 -68 166 -63 179 3 9 0 20 -8 25
-15 9 -109 13 -109 4 0 -3 10 -31 23 -63 22 -55 22 -64 17 -307 l-5 -250 -32
-65 c-18 -36 -64 -101 -103 -145 -82 -93 -121 -165 -123 -228 -3 -83 42 -124
128 -115 66 8 129 51 193 131 170 212 234 244 567 287 245 31 367 75 459 165
70 67 101 141 99 237 0 59 -5 85 -21 112 -18 30 -19 37 -7 53 20 25 19 113 -1
141 -28 41 -66 52 -174 52 -93 0 -100 -1 -100 -20 0 -17 -7 -20 -50 -20 -43 0
-50 3 -50 20 0 19 -7 20 -114 20 -92 0 -116 3 -127 16 -11 14 -4 25 57 82 38
37 78 72 89 78 30 18 7 36 -24 20z m-284 -77 c34 -12 104 -79 97 -91 -11 -17
-89 -48 -122 -48 -43 0 -92 46 -92 86 0 55 50 78 117 53z m192 -361 l1 -198
110 0 110 0 0 40 0 39 -67 3 -68 3 -3 48 -3 47 60 0 61 0 0 40 0 40 -60 0 -60
0 0 50 0 50 38 0 c22 0 73 3 115 6 l77 7 0 -187 0 -186 93 0 c78 0 101 4 139
23 l45 23 -7 -31 c-18 -80 -87 -163 -181 -218 -63 -37 -172 -64 -349 -88 -175
-23 -211 -30 -294 -58 -109 -38 -148 -69 -264 -206 -85 -101 -92 -108 -144
-135 -47 -25 -99 -26 -129 -2 -17 15 -22 29 -22 64 1 61 28 109 118 214 135
159 161 246 150 499 -5 101 -3 147 3 140 6 -5 29 -57 52 -115 23 -58 45 -109
49 -113 8 -7 81 151 81 174 0 30 22 -3 54 -81 21 -49 41 -92 45 -95 8 -4 181
421 181 445 0 6 15 -1 34 -17 l35 -28 0 -197z m505 146 c19 -19 22 -51 4 -37
-7 5 -26 19 -42 31 l-29 22 26 0 c14 0 33 -7 41 -16z m-46 -41 c45 -33 40 -45
-15 -41 -48 3 -48 3 -51 40 -3 33 -1 37 15 31 10 -3 33 -17 51 -30z m50 -135
c17 -17 15 -53 -4 -69 -9 -7 -37 -13 -62 -13 l-47 -1 -3 48 -3 47 53 0 c30 0
59 -5 66 -12z"/>
<path d="M3753 2685 l-92 -225 49 0 c43 0 48 3 54 25 6 24 9 25 85 25 76 0 79
-1 85 -25 6 -22 12 -25 51 -25 25 0 45 3 45 7 0 14 -175 443 -181 443 -3 0
-46 -101 -96 -225z m116 -26 c7 -23 15 -47 18 -55 4 -11 -5 -14 -36 -14 -23 0
-41 4 -41 8 0 18 32 102 39 102 4 0 13 -18 20 -41z"/>
<path d="M390 2860 l0 -40 55 0 55 0 0 -180 0 -180 40 0 40 0 0 180 0 180 55
0 55 0 0 40 0 40 -150 0 -150 0 0 -40z"/>
<path d="M1710 2680 l0 -220 40 0 40 0 0 85 c0 84 0 85 25 85 22 0 31 -12 67
-85 l42 -85 48 0 c27 0 48 2 48 4 0 2 -20 39 -45 82 -25 44 -45 82 -45 86 0 3
15 21 34 40 63 63 56 158 -13 205 -30 20 -46 23 -137 23 l-104 0 0 -220z m190
120 c25 -25 25 -45 -1 -71 -15 -15 -30 -19 -62 -17 -41 3 -42 4 -45 42 -2 21
-1 44 2 52 8 22 82 18 106 -6z"/>
<path d="M4480 2680 l0 -220 40 0 40 0 0 84 0 83 68 5 c40 3 79 12 94 22 76
50 65 197 -17 232 -22 9 -70 14 -130 14 l-95 0 0 -220z m194 124 c9 -8 16 -26
16 -39 0 -38 -26 -55 -81 -55 l-49 0 0 55 0 55 49 0 c32 0 55 -6 65 -16z"/>
<path d="M2760 1573 c-37 -18 -89 -62 -160 -134 -58 -59 -118 -113 -135 -119
-16 -6 -62 -17 -101 -25 -85 -16 -145 -44 -167 -79 -21 -31 -22 -56 -2 -56 8
0 15 6 15 14 0 8 15 27 33 43 26 23 54 34 123 47 49 10 106 27 127 38 22 11
84 66 139 123 114 118 170 151 246 142 69 -8 112 -48 127 -120 3 -15 15 -37
26 -48 20 -20 28 -21 123 -14 87 6 104 4 115 -9 13 -15 41 -22 41 -10 0 42
-67 69 -131 55 -60 -14 -115 -13 -127 2 -6 6 -14 26 -17 42 -13 52 -44 93 -89
114 -59 29 -120 27 -186 -6z"/>
</g>
</svg>
